<svg version="1.1" viewBox="0.0 0.0 960.0 960.0" fill="none" stroke="none" stroke-linecap="square" stroke-miterlimit="10" xmlns:xlink="http://www.w3.org/1999/xlink" xmlns="http://www.w3.org/2000/svg"><clipPath id="p.0"><path d="m0 0l960.0 0l0 960.0l-960.0 0l0 -960.0z" clip-rule="nonzero"/></clipPath><g clip-path="url(#p.0)"><path fill="#000000" fill-opacity="0.0" d="m0 0l960.0 0l0 960.0l-960.0 0z" fill-rule="evenodd"/><path fill="#000000" d="m416.7874 186.13911l0 0c0 -34.91136 28.301239 -63.21261 63.212585 -63.21261l0 0c16.765015 0 32.843384 6.659889 44.69806 18.51455c11.854675 11.85466 18.514526 27.93303 18.514526 44.69806l0 0c0 34.911346 -28.301208 63.212585 -63.212585 63.212585l0 0c-34.911346 0 -63.212585 -28.301239 -63.212585 -63.212585z" fill-rule="evenodd"/><path fill="#000000" d="m416.7874 480.0l0 0c0 -34.911346 28.301239 -63.212585 63.212585 -63.212585l0 0c16.765015 0 32.843384 6.6598816 44.69806 18.514526c11.854675 11.854675 18.514526 27.933044 18.514526 44.69806l0 0c0 34.911377 -28.301208 63.212585 -63.212585 63.212585l0 0c-34.911346 0 -63.212585 -28.301208 -63.212585 -63.212585z" fill-rule="evenodd"/><path fill="#000000" d="m416.7874 773.8609l0 0c0 -34.911377 28.301239 -63.212585 63.212585 -63.212585l0 0c16.765015 0 32.843384 6.659851 44.69806 18.514526c11.854675 11.854675 18.514526 27.933044 18.514526 44.69806l0 0c0 34.911316 -28.301208 63.212585 -63.212585 63.212585l0 0c-34.911346 0 -63.212585 -28.30127 -63.212585 -63.212585z" fill-rule="evenodd"/></g></svg>