<svg version="1.1" viewBox="0.0 0.0 960.0 960.0" fill="none" stroke="none" stroke-linecap="square" stroke-miterlimit="10" xmlns:xlink="http://www.w3.org/1999/xlink" xmlns="http://www.w3.org/2000/svg"><clipPath id="p.0"><path d="m0 0l960.0 0l0 960.0l-960.0 0l0 -960.0z" clip-rule="nonzero"/></clipPath><g clip-path="url(#p.0)"><path fill="#000000" fill-opacity="0.0" d="m0 0l960.0 0l0 960.0l-960.0 0z" fill-rule="evenodd"/><path fill="#000000" d="m395.88977 88.99344l0 0c0 -46.4528 37.65744 -84.11024 84.11023 -84.11024l0 0c22.307434 0 43.70117 8.861589 59.474915 24.635319c15.773743 15.773727 24.635315 37.1675 24.635315 59.47492l0 0c0 46.452805 -37.65741 84.11023 -84.11023 84.11023l0 0c-46.45279 0 -84.11023 -37.657425 -84.11023 -84.11023z" fill-rule="evenodd"/><path fill="#000000" d="m395.88977 479.9994l0 0c0 -46.45279 37.65744 -84.11023 84.11023 -84.11023l0 0c22.307434 0 43.70117 8.861572 59.474915 24.635315c15.773743 15.773712 24.635315 37.16748 24.635315 59.474915l0 0c0 46.45282 -37.65741 84.11023 -84.11023 84.11023l0 0c-46.45279 0 -84.11023 -37.65741 -84.11023 -84.11023z" fill-rule="evenodd"/><path fill="#000000" d="m395.88977 871.0054l0 0c0 -46.45282 37.65744 -84.11029 84.11023 -84.11029l0 0c22.307434 0 43.70117 8.861633 59.474915 24.635315c15.773743 15.773743 24.635315 37.16754 24.635315 59.474976l0 0c0 46.45276 -37.65741 84.11023 -84.11023 84.11023l0 0c-46.45279 0 -84.11023 -37.65747 -84.11023 -84.11023z" fill-rule="evenodd"/></g></svg>